<mxfile host="app.diagrams.net" modified="2022-05-19T01:00:04.015Z" agent="5.0 (Windows NT 10.0; Win64; x64) AppleWebKit/537.36 (KHTML, like Gecko) Chrome/101.0.4951.54 Safari/537.36" etag="jq_fTApJX51JXIUqbM33" version="18.0.7" type="github" pages="2">
  <diagram id="NAEZ8g8IM0M3P9Sj0p2i" name="Page-1">
    <mxGraphModel dx="1278" dy="539" grid="1" gridSize="10" guides="1" tooltips="1" connect="1" arrows="1" fold="1" page="1" pageScale="1" pageWidth="827" pageHeight="1169" math="0" shadow="0">
      <root>
        <mxCell id="0" />
        <mxCell id="1" parent="0" />
        <mxCell id="9yOPclrMcw7QnsK9AsFP-1" value="Proceso inventarios - Recibo de material" style="swimlane;childLayout=stackLayout;resizeParent=1;resizeParentMax=0;startSize=20;horizontal=0;horizontalStack=1;" vertex="1" parent="1">
          <mxGeometry x="80" y="60" width="770" height="1140" as="geometry" />
        </mxCell>
        <mxCell id="9yOPclrMcw7QnsK9AsFP-2" value="Proveedor" style="swimlane;startSize=20;" vertex="1" parent="9yOPclrMcw7QnsK9AsFP-1">
          <mxGeometry x="20" width="250" height="1140" as="geometry" />
        </mxCell>
        <mxCell id="9yOPclrMcw7QnsK9AsFP-3" value="Inicio" style="ellipse;whiteSpace=wrap;html=1;" vertex="1" parent="9yOPclrMcw7QnsK9AsFP-2">
          <mxGeometry x="68.75" y="40" width="112.5" height="80" as="geometry" />
        </mxCell>
        <mxCell id="9yOPclrMcw7QnsK9AsFP-4" value="" style="edgeStyle=orthogonalEdgeStyle;rounded=0;orthogonalLoop=1;jettySize=auto;html=1;" edge="1" parent="9yOPclrMcw7QnsK9AsFP-2" source="9yOPclrMcw7QnsK9AsFP-5" target="9yOPclrMcw7QnsK9AsFP-7">
          <mxGeometry relative="1" as="geometry" />
        </mxCell>
        <mxCell id="9yOPclrMcw7QnsK9AsFP-5" value="Llegada de mercancía" style="whiteSpace=wrap;html=1;" vertex="1" parent="9yOPclrMcw7QnsK9AsFP-2">
          <mxGeometry x="65" y="160" width="120" height="60" as="geometry" />
        </mxCell>
        <mxCell id="9yOPclrMcw7QnsK9AsFP-6" value="" style="edgeStyle=orthogonalEdgeStyle;rounded=0;orthogonalLoop=1;jettySize=auto;html=1;" edge="1" parent="9yOPclrMcw7QnsK9AsFP-2" source="9yOPclrMcw7QnsK9AsFP-3" target="9yOPclrMcw7QnsK9AsFP-5">
          <mxGeometry relative="1" as="geometry" />
        </mxCell>
        <mxCell id="9yOPclrMcw7QnsK9AsFP-7" value="Entrega OC y copia de factura" style="shape=document;whiteSpace=wrap;html=1;boundedLbl=1;" vertex="1" parent="9yOPclrMcw7QnsK9AsFP-2">
          <mxGeometry x="65" y="270" width="120" height="80" as="geometry" />
        </mxCell>
        <mxCell id="9yOPclrMcw7QnsK9AsFP-8" value="Se notifica el rechazo por incumplimiento" style="whiteSpace=wrap;html=1;" vertex="1" parent="9yOPclrMcw7QnsK9AsFP-2">
          <mxGeometry x="68.75" y="485" width="120" height="60" as="geometry" />
        </mxCell>
        <mxCell id="9yOPclrMcw7QnsK9AsFP-9" value="" style="edgeStyle=orthogonalEdgeStyle;rounded=0;orthogonalLoop=1;jettySize=auto;html=1;" edge="1" parent="9yOPclrMcw7QnsK9AsFP-2" source="9yOPclrMcw7QnsK9AsFP-10" target="9yOPclrMcw7QnsK9AsFP-8">
          <mxGeometry relative="1" as="geometry" />
        </mxCell>
        <mxCell id="9yOPclrMcw7QnsK9AsFP-10" value="1" style="ellipse;whiteSpace=wrap;html=1;aspect=fixed;" vertex="1" parent="9yOPclrMcw7QnsK9AsFP-2">
          <mxGeometry x="103.75" y="580" width="50" height="50" as="geometry" />
        </mxCell>
        <mxCell id="9yOPclrMcw7QnsK9AsFP-44" value="Fin" style="ellipse;whiteSpace=wrap;html=1;" vertex="1" parent="9yOPclrMcw7QnsK9AsFP-2">
          <mxGeometry x="10" y="690" width="120" height="60" as="geometry" />
        </mxCell>
        <mxCell id="9yOPclrMcw7QnsK9AsFP-45" value="" style="edgeStyle=orthogonalEdgeStyle;rounded=0;orthogonalLoop=1;jettySize=auto;html=1;exitX=0;exitY=0.5;exitDx=0;exitDy=0;" edge="1" parent="9yOPclrMcw7QnsK9AsFP-2" source="9yOPclrMcw7QnsK9AsFP-8" target="9yOPclrMcw7QnsK9AsFP-44">
          <mxGeometry relative="1" as="geometry" />
        </mxCell>
        <mxCell id="9yOPclrMcw7QnsK9AsFP-11" value="Jefe almacén" style="swimlane;startSize=20;" vertex="1" parent="9yOPclrMcw7QnsK9AsFP-1">
          <mxGeometry x="270" width="250" height="1140" as="geometry" />
        </mxCell>
        <mxCell id="9yOPclrMcw7QnsK9AsFP-12" value="" style="edgeStyle=orthogonalEdgeStyle;rounded=0;orthogonalLoop=1;jettySize=auto;html=1;" edge="1" parent="9yOPclrMcw7QnsK9AsFP-11" source="9yOPclrMcw7QnsK9AsFP-13" target="9yOPclrMcw7QnsK9AsFP-14">
          <mxGeometry relative="1" as="geometry" />
        </mxCell>
        <mxCell id="9yOPclrMcw7QnsK9AsFP-13" value="Verificar documentos" style="whiteSpace=wrap;html=1;" vertex="1" parent="9yOPclrMcw7QnsK9AsFP-11">
          <mxGeometry x="65" y="170" width="120" height="60" as="geometry" />
        </mxCell>
        <mxCell id="9yOPclrMcw7QnsK9AsFP-14" value="¿Corresponden?" style="rhombus;whiteSpace=wrap;html=1;" vertex="1" parent="9yOPclrMcw7QnsK9AsFP-11">
          <mxGeometry x="77.5" y="330" width="95" height="90" as="geometry" />
        </mxCell>
        <mxCell id="9yOPclrMcw7QnsK9AsFP-15" value="" style="edgeStyle=orthogonalEdgeStyle;rounded=0;orthogonalLoop=1;jettySize=auto;html=1;" edge="1" parent="9yOPclrMcw7QnsK9AsFP-11" source="9yOPclrMcw7QnsK9AsFP-16" target="9yOPclrMcw7QnsK9AsFP-19">
          <mxGeometry relative="1" as="geometry" />
        </mxCell>
        <mxCell id="9yOPclrMcw7QnsK9AsFP-16" value="Descarga y ubicación de mercancía en área de recepción" style="whiteSpace=wrap;html=1;" vertex="1" parent="9yOPclrMcw7QnsK9AsFP-11">
          <mxGeometry x="65" y="485" width="120" height="60" as="geometry" />
        </mxCell>
        <mxCell id="9yOPclrMcw7QnsK9AsFP-17" value="SI" style="edgeStyle=orthogonalEdgeStyle;rounded=0;orthogonalLoop=1;jettySize=auto;html=1;" edge="1" parent="9yOPclrMcw7QnsK9AsFP-11" source="9yOPclrMcw7QnsK9AsFP-14" target="9yOPclrMcw7QnsK9AsFP-16">
          <mxGeometry relative="1" as="geometry" />
        </mxCell>
        <mxCell id="9yOPclrMcw7QnsK9AsFP-18" value="NO" style="edgeStyle=orthogonalEdgeStyle;rounded=0;orthogonalLoop=1;jettySize=auto;html=1;" edge="1" parent="9yOPclrMcw7QnsK9AsFP-11" source="9yOPclrMcw7QnsK9AsFP-19" target="9yOPclrMcw7QnsK9AsFP-21">
          <mxGeometry relative="1" as="geometry" />
        </mxCell>
        <mxCell id="9yOPclrMcw7QnsK9AsFP-19" value="¿Necesita revisión técnica?" style="rhombus;whiteSpace=wrap;html=1;" vertex="1" parent="9yOPclrMcw7QnsK9AsFP-11">
          <mxGeometry x="73.75" y="580" width="102.5" height="100" as="geometry" />
        </mxCell>
        <mxCell id="9yOPclrMcw7QnsK9AsFP-20" value="" style="edgeStyle=orthogonalEdgeStyle;rounded=0;orthogonalLoop=1;jettySize=auto;html=1;" edge="1" parent="9yOPclrMcw7QnsK9AsFP-11" source="9yOPclrMcw7QnsK9AsFP-21" target="9yOPclrMcw7QnsK9AsFP-23">
          <mxGeometry relative="1" as="geometry" />
        </mxCell>
        <mxCell id="9yOPclrMcw7QnsK9AsFP-21" value="Verifica cuantitativamente la mercancía" style="whiteSpace=wrap;html=1;" vertex="1" parent="9yOPclrMcw7QnsK9AsFP-11">
          <mxGeometry x="65" y="740" width="120" height="60" as="geometry" />
        </mxCell>
        <mxCell id="9yOPclrMcw7QnsK9AsFP-22" value="SI" style="edgeStyle=orthogonalEdgeStyle;rounded=0;orthogonalLoop=1;jettySize=auto;html=1;" edge="1" parent="9yOPclrMcw7QnsK9AsFP-11" source="9yOPclrMcw7QnsK9AsFP-23" target="9yOPclrMcw7QnsK9AsFP-25">
          <mxGeometry relative="1" as="geometry" />
        </mxCell>
        <mxCell id="9yOPclrMcw7QnsK9AsFP-23" value="¿La cantidad es correcta?" style="rhombus;whiteSpace=wrap;html=1;" vertex="1" parent="9yOPclrMcw7QnsK9AsFP-11">
          <mxGeometry x="73.75" y="840" width="102.5" height="100" as="geometry" />
        </mxCell>
        <mxCell id="9yOPclrMcw7QnsK9AsFP-24" value="" style="edgeStyle=orthogonalEdgeStyle;rounded=0;orthogonalLoop=1;jettySize=auto;html=1;entryX=0.5;entryY=0;entryDx=0;entryDy=0;" edge="1" parent="9yOPclrMcw7QnsK9AsFP-11" source="9yOPclrMcw7QnsK9AsFP-25" target="9yOPclrMcw7QnsK9AsFP-26">
          <mxGeometry relative="1" as="geometry">
            <mxPoint x="125" y="1060" as="targetPoint" />
          </mxGeometry>
        </mxCell>
        <mxCell id="9yOPclrMcw7QnsK9AsFP-25" value="Aceptación de mercancía y comunica al proveedor" style="whiteSpace=wrap;html=1;" vertex="1" parent="9yOPclrMcw7QnsK9AsFP-11">
          <mxGeometry x="65" y="980" width="120" height="60" as="geometry" />
        </mxCell>
        <mxCell id="9yOPclrMcw7QnsK9AsFP-26" value="2" style="ellipse;whiteSpace=wrap;html=1;aspect=fixed;" vertex="1" parent="9yOPclrMcw7QnsK9AsFP-11">
          <mxGeometry x="92.5" y="1070" width="65" height="65" as="geometry" />
        </mxCell>
        <mxCell id="9yOPclrMcw7QnsK9AsFP-27" value="Auxiliar de calidad" style="swimlane;startSize=20;" vertex="1" parent="9yOPclrMcw7QnsK9AsFP-1">
          <mxGeometry x="520" width="250" height="1140" as="geometry" />
        </mxCell>
        <mxCell id="9yOPclrMcw7QnsK9AsFP-28" value="Hace inspección de especificaciones técnicas" style="whiteSpace=wrap;html=1;" vertex="1" parent="9yOPclrMcw7QnsK9AsFP-27">
          <mxGeometry x="65" y="170" width="120" height="60" as="geometry" />
        </mxCell>
        <mxCell id="9yOPclrMcw7QnsK9AsFP-29" value="NO" style="edgeStyle=orthogonalEdgeStyle;rounded=0;orthogonalLoop=1;jettySize=auto;html=1;entryX=0.5;entryY=0;entryDx=0;entryDy=0;" edge="1" parent="9yOPclrMcw7QnsK9AsFP-27" source="9yOPclrMcw7QnsK9AsFP-30" target="9yOPclrMcw7QnsK9AsFP-32">
          <mxGeometry relative="1" as="geometry">
            <Array as="points">
              <mxPoint x="218" y="370" />
            </Array>
          </mxGeometry>
        </mxCell>
        <mxCell id="9yOPclrMcw7QnsK9AsFP-30" value="¿Cumple con especificaciones?" style="rhombus;whiteSpace=wrap;html=1;" vertex="1" parent="9yOPclrMcw7QnsK9AsFP-27">
          <mxGeometry x="76.25" y="320" width="97.5" height="100" as="geometry" />
        </mxCell>
        <mxCell id="9yOPclrMcw7QnsK9AsFP-31" value="" style="edgeStyle=orthogonalEdgeStyle;rounded=0;orthogonalLoop=1;jettySize=auto;html=1;" edge="1" parent="9yOPclrMcw7QnsK9AsFP-27" source="9yOPclrMcw7QnsK9AsFP-28" target="9yOPclrMcw7QnsK9AsFP-30">
          <mxGeometry relative="1" as="geometry" />
        </mxCell>
        <mxCell id="9yOPclrMcw7QnsK9AsFP-32" value="1" style="ellipse;whiteSpace=wrap;html=1;aspect=fixed;" vertex="1" parent="9yOPclrMcw7QnsK9AsFP-27">
          <mxGeometry x="185" y="410" width="65" height="65" as="geometry" />
        </mxCell>
        <mxCell id="9yOPclrMcw7QnsK9AsFP-33" value="Coloca etiqueta de cumplimiento" style="shape=document;whiteSpace=wrap;html=1;boundedLbl=1;" vertex="1" parent="9yOPclrMcw7QnsK9AsFP-27">
          <mxGeometry x="65" y="740" width="120" height="80" as="geometry" />
        </mxCell>
        <mxCell id="9yOPclrMcw7QnsK9AsFP-34" value="NO" style="edgeStyle=orthogonalEdgeStyle;rounded=0;orthogonalLoop=1;jettySize=auto;html=1;exitX=0;exitY=0.5;exitDx=0;exitDy=0;" edge="1" parent="9yOPclrMcw7QnsK9AsFP-1" source="9yOPclrMcw7QnsK9AsFP-14" target="9yOPclrMcw7QnsK9AsFP-8">
          <mxGeometry x="-0.8185" relative="1" as="geometry">
            <Array as="points">
              <mxPoint x="149" y="375" />
            </Array>
            <mxPoint as="offset" />
          </mxGeometry>
        </mxCell>
        <mxCell id="9yOPclrMcw7QnsK9AsFP-35" style="edgeStyle=orthogonalEdgeStyle;rounded=0;orthogonalLoop=1;jettySize=auto;html=1;exitX=1;exitY=0.5;exitDx=0;exitDy=0;entryX=0;entryY=0.5;entryDx=0;entryDy=0;" edge="1" parent="9yOPclrMcw7QnsK9AsFP-1" source="9yOPclrMcw7QnsK9AsFP-7" target="9yOPclrMcw7QnsK9AsFP-13">
          <mxGeometry relative="1" as="geometry">
            <Array as="points">
              <mxPoint x="280" y="310" />
              <mxPoint x="280" y="200" />
            </Array>
          </mxGeometry>
        </mxCell>
        <mxCell id="9yOPclrMcw7QnsK9AsFP-36" value="" style="edgeStyle=orthogonalEdgeStyle;rounded=0;orthogonalLoop=1;jettySize=auto;html=1;" edge="1" parent="9yOPclrMcw7QnsK9AsFP-1" source="9yOPclrMcw7QnsK9AsFP-19" target="9yOPclrMcw7QnsK9AsFP-28">
          <mxGeometry relative="1" as="geometry">
            <Array as="points">
              <mxPoint x="560" y="630" />
              <mxPoint x="560" y="200" />
            </Array>
          </mxGeometry>
        </mxCell>
        <mxCell id="9yOPclrMcw7QnsK9AsFP-37" value="SI" style="edgeLabel;html=1;align=center;verticalAlign=middle;resizable=0;points=[];" vertex="1" connectable="0" parent="9yOPclrMcw7QnsK9AsFP-36">
          <mxGeometry x="-0.7552" y="-1" relative="1" as="geometry">
            <mxPoint x="-46" y="-1" as="offset" />
          </mxGeometry>
        </mxCell>
        <mxCell id="9yOPclrMcw7QnsK9AsFP-38" style="edgeStyle=orthogonalEdgeStyle;rounded=0;orthogonalLoop=1;jettySize=auto;html=1;entryX=0.924;entryY=1.061;entryDx=0;entryDy=0;entryPerimeter=0;" edge="1" parent="9yOPclrMcw7QnsK9AsFP-1" source="9yOPclrMcw7QnsK9AsFP-23" target="9yOPclrMcw7QnsK9AsFP-8">
          <mxGeometry relative="1" as="geometry" />
        </mxCell>
        <mxCell id="9yOPclrMcw7QnsK9AsFP-39" value="NO" style="edgeLabel;html=1;align=center;verticalAlign=middle;resizable=0;points=[];" vertex="1" connectable="0" parent="9yOPclrMcw7QnsK9AsFP-38">
          <mxGeometry x="-0.8788" y="-2" relative="1" as="geometry">
            <mxPoint as="offset" />
          </mxGeometry>
        </mxCell>
        <mxCell id="9yOPclrMcw7QnsK9AsFP-40" style="edgeStyle=orthogonalEdgeStyle;rounded=0;orthogonalLoop=1;jettySize=auto;html=1;entryX=1;entryY=0.5;entryDx=0;entryDy=0;" edge="1" parent="9yOPclrMcw7QnsK9AsFP-1" source="9yOPclrMcw7QnsK9AsFP-33" target="9yOPclrMcw7QnsK9AsFP-25">
          <mxGeometry relative="1" as="geometry">
            <Array as="points">
              <mxPoint x="645" y="1010" />
            </Array>
          </mxGeometry>
        </mxCell>
        <mxCell id="9yOPclrMcw7QnsK9AsFP-41" value="" style="edgeStyle=orthogonalEdgeStyle;rounded=0;orthogonalLoop=1;jettySize=auto;html=1;" edge="1" parent="1" source="9yOPclrMcw7QnsK9AsFP-42" target="9yOPclrMcw7QnsK9AsFP-33">
          <mxGeometry relative="1" as="geometry" />
        </mxCell>
        <mxCell id="9yOPclrMcw7QnsK9AsFP-42" value="Aprueba recepción de mercancía" style="whiteSpace=wrap;html=1;" vertex="1" parent="1">
          <mxGeometry x="665" y="600" width="120" height="60" as="geometry" />
        </mxCell>
        <mxCell id="9yOPclrMcw7QnsK9AsFP-43" value="SI" style="edgeStyle=orthogonalEdgeStyle;rounded=0;orthogonalLoop=1;jettySize=auto;html=1;" edge="1" parent="1" source="9yOPclrMcw7QnsK9AsFP-30" target="9yOPclrMcw7QnsK9AsFP-42">
          <mxGeometry relative="1" as="geometry" />
        </mxCell>
      </root>
    </mxGraphModel>
  </diagram>
  <diagram name="Page-2" id="AdKIpGKvNYz6dEXDQnyk">
    <mxGraphModel dx="1038" dy="539" grid="1" gridSize="10" guides="1" tooltips="1" connect="1" arrows="1" fold="1" page="1" pageScale="1" pageWidth="827" pageHeight="1169" math="0" shadow="0">
      <root>
        <mxCell id="0" />
        <mxCell id="1" parent="0" />
        <mxCell id="ayZ2iCyhxGKRSi2Dpl_o-1" value="Proceso inventarios - Recibo de material" style="swimlane;childLayout=stackLayout;resizeParent=1;resizeParentMax=0;startSize=20;horizontal=0;horizontalStack=1;" vertex="1" parent="1">
          <mxGeometry x="40" y="20" width="770" height="1140" as="geometry" />
        </mxCell>
        <mxCell id="ayZ2iCyhxGKRSi2Dpl_o-2" value="Proveedor" style="swimlane;startSize=20;" vertex="1" parent="ayZ2iCyhxGKRSi2Dpl_o-1">
          <mxGeometry x="20" width="250" height="1140" as="geometry" />
        </mxCell>
        <mxCell id="ayZ2iCyhxGKRSi2Dpl_o-11" value="Jefe almacén" style="swimlane;startSize=20;" vertex="1" parent="ayZ2iCyhxGKRSi2Dpl_o-1">
          <mxGeometry x="270" width="250" height="1140" as="geometry" />
        </mxCell>
        <mxCell id="ayZ2iCyhxGKRSi2Dpl_o-41" value="Registro de entrada de mercancías" style="shape=document;whiteSpace=wrap;html=1;boundedLbl=1;" vertex="1" parent="ayZ2iCyhxGKRSi2Dpl_o-11">
          <mxGeometry x="65" y="120" width="120" height="80" as="geometry" />
        </mxCell>
        <mxCell id="CjdfbAL-eO82W5pllThL-2" value="" style="edgeStyle=orthogonalEdgeStyle;rounded=0;orthogonalLoop=1;jettySize=auto;html=1;" edge="1" parent="ayZ2iCyhxGKRSi2Dpl_o-11" source="CjdfbAL-eO82W5pllThL-1" target="ayZ2iCyhxGKRSi2Dpl_o-41">
          <mxGeometry relative="1" as="geometry" />
        </mxCell>
        <mxCell id="CjdfbAL-eO82W5pllThL-1" value="2" style="ellipse;whiteSpace=wrap;html=1;aspect=fixed;" vertex="1" parent="ayZ2iCyhxGKRSi2Dpl_o-11">
          <mxGeometry x="92.5" y="30" width="65" height="65" as="geometry" />
        </mxCell>
        <mxCell id="imoFRnsPMeE2F3E3_VTV-3" value="Imprime por duplicado la&lt;br&gt;entrada y sella" style="shape=document;whiteSpace=wrap;html=1;boundedLbl=1;" vertex="1" parent="ayZ2iCyhxGKRSi2Dpl_o-11">
          <mxGeometry x="65" y="230" width="120" height="80" as="geometry" />
        </mxCell>
        <mxCell id="imoFRnsPMeE2F3E3_VTV-4" value="" style="edgeStyle=orthogonalEdgeStyle;rounded=0;orthogonalLoop=1;jettySize=auto;html=1;" edge="1" parent="ayZ2iCyhxGKRSi2Dpl_o-11" source="ayZ2iCyhxGKRSi2Dpl_o-41" target="imoFRnsPMeE2F3E3_VTV-3">
          <mxGeometry relative="1" as="geometry" />
        </mxCell>
        <mxCell id="imoFRnsPMeE2F3E3_VTV-5" value="Archiva documento físico en expediente" style="whiteSpace=wrap;html=1;" vertex="1" parent="ayZ2iCyhxGKRSi2Dpl_o-11">
          <mxGeometry x="65" y="340" width="120" height="60" as="geometry" />
        </mxCell>
        <mxCell id="imoFRnsPMeE2F3E3_VTV-6" value="" style="edgeStyle=orthogonalEdgeStyle;rounded=0;orthogonalLoop=1;jettySize=auto;html=1;" edge="1" parent="ayZ2iCyhxGKRSi2Dpl_o-11" source="imoFRnsPMeE2F3E3_VTV-3" target="imoFRnsPMeE2F3E3_VTV-5">
          <mxGeometry relative="1" as="geometry" />
        </mxCell>
        <mxCell id="ayZ2iCyhxGKRSi2Dpl_o-27" value="Auxiliar de calidad" style="swimlane;startSize=20;" vertex="1" parent="ayZ2iCyhxGKRSi2Dpl_o-1">
          <mxGeometry x="520" width="250" height="1140" as="geometry" />
        </mxCell>
        <mxCell id="imoFRnsPMeE2F3E3_VTV-7" value="Fín" style="ellipse;whiteSpace=wrap;html=1;" vertex="1" parent="1">
          <mxGeometry x="375" y="500" width="120" height="60" as="geometry" />
        </mxCell>
        <mxCell id="imoFRnsPMeE2F3E3_VTV-8" value="" style="edgeStyle=orthogonalEdgeStyle;rounded=0;orthogonalLoop=1;jettySize=auto;html=1;" edge="1" parent="1" source="imoFRnsPMeE2F3E3_VTV-5" target="imoFRnsPMeE2F3E3_VTV-7">
          <mxGeometry relative="1" as="geometry" />
        </mxCell>
      </root>
    </mxGraphModel>
  </diagram>
</mxfile>
